:SAMPLES-PER-SECOND 30
:FULLY-SPECIFIED
:DEGREES
465
root  2.98128 31.6199 56.8797 112.843 11.9935 90.6294
Spine  -1.06037 -2.96953 -2.53081
Spine1  0.096186 3.85875 10.2588
Neck  3.97569e-016 0 -2.38542e-015
Head  -5.22245 0.641942 6.05069
R_Clavicle  0.344498 -19.0331 -0.483427
R_UpperArm  32.5635 -5.51837 26.6953
R_Forearm  -5.27252 -44.1644 24.7971
R_Hand  -0.825174 9.11919 -17.7986
L_Clavicle  -0.45935 16.1197 -2.87914
L_UpperArm  8.0827 -8.04957 -10.5931
L_Forearm  -9.28688 20.9 26.1585
L_Hand  -0.302772 0.443287 -5.691
L_Thigh  -5.294 3.85104 3.48233
L_Calf  8.70906 -1.98635 14.7195
L_Foot  3.09041 13.0975 -0.321437
L_Toe0  0.505156 0.0344461 -6.1361
R_Thigh  6.91403 -5.88823 -0.872015
R_Calf  -4.24275 1.46003 4.4968
R_Foot  2.3653 5.12036 -13.5351
R_Toe0  -2.02518 -0.258414 -17.4579
466
root  3.41532 31.6388 56.6348 110.513 12.9416 91.3463
Spine  -1.48906 -5.18658 -4.3096
Spine1  -0.179838 5.68513 10.1815
Neck  3.97569e-016 0 -2.38542e-015
Head  -2.3997 -0.00929047 9.6604
R_Clavicle  0.376218 -20.0993 -0.193743
R_UpperArm  37.2691 -8.18708 28.0438
R_Forearm  -8.81902 -46.683 29.8308
R_Hand  -0.784606 9.40488 -17.5562
L_Clavicle  -0.411317 15.2111 -2.55978
L_UpperArm  13.1447 -8.58568 -10.9557
L_Forearm  -10.6901 23.4363 30.1021
L_Hand  -0.193115 0.356038 -3.67218
L_Thigh  -6.39142 3.23177 1.68782
L_Calf  7.41917 -1.99943 14.9033
L_Foot  3.02703 12.8627 -0.34852
L_Toe0  0.505156 0.0344461 -6.1361
R_Thigh  8.09701 -5.8719 -2.51023
R_Calf  -5.17548 -0.63543 -2.00276
R_Foot  2.47062 6.12382 -12.3564
R_Toe0  -1.79808 -0.272937 -17.3289
467
root  3.83801 31.8111 56.3532 107.205 13.6792 91.9304
Spine  -1.86723 -6.59436 -6.1219
Spine1  -0.828968 6.58924 8.66291
Neck  3.97569e-016 0 -2.38542e-015
Head  1.58168 -1.09348 14.9221
R_Clavicle  0.398403 -21.0251 -0.0155308
R_UpperArm  39.9325 -10.7765 30.1638
R_Forearm  -10.7149 -47.7749 33.7254
R_Hand  -0.491229 9.85853 -15.6449
L_Clavicle  -0.41564 15.2255 -2.06466
L_UpperArm  19.0841 -8.52622 -8.73956
L_Forearm  -12.9172 25.918 33.6719
L_Hand  -0.0574885 0.297729 -1.10085
L_Thigh  -7.8387 2.44539 -0.515381
L_Calf  4.64049 -2.22174 16.6639
L_Foot  2.80681 13.5055 -1.50973
L_Toe0  0.505156 0.0344461 -6.1361
R_Thigh  8.61238 -5.51274 -4.90758
R_Calf  -5.40654 -2.26287 -7.06943
R_Foot  2.52748 5.95904 -13.8943
R_Toe0  -1.78853 -0.272747 -17.3235
468
root  4.23365 32.0478 55.9981 103.28 14.233 92.5367
Spine  -2.16731 -7.1975 -7.98053
Spine1  -1.67108 6.59638 6.76962
Neck  3.97569e-016 0 -2.38542e-015
Head  6.20115 -2.58009 20.4571
R_Clavicle  0.408856 -21.5138 0.0566101
R_UpperArm  41.2142 -13.0273 32.709
R_Forearm  -11.4667 -47.7463 35.2687
R_Hand  -0.195 9.46736 -13.447
L_Clavicle  -0.43114 15.5234 -1.74637
L_UpperArm  21.0777 -7.99806 -4.68241
L_Forearm  -12.6707 29.1425 35.3013
L_Hand  0.0489269 0.0466421 0.990456
L_Thigh  -10.6585 1.76026 -2.63681
L_Calf  2.15778 -2.53599 19.1522
L_Foot  2.41131 14.8749 -3.67326
L_Toe0  0.505156 0.0344461 -6.1361
R_Thigh  8.71688 -5.40033 -7.867
R_Calf  -4.29332 -3.29574 -10.3237
R_Foot  2.62749 5.77034 -16.1894
R_Toe0  -1.78853 -0.272774 -17.3235
469
root  4.59497 32.2342 55.5751 99.1653 14.8286 93.41
Spine  -2.3322 -7.86118 -9.93687
Spine1  -2.3334 6.69704 5.63876
Neck  3.97569e-016 0 -2.38542e-015
Head  10.7928 -4.46306 24.7579
R_Clavicle  0.408133 -21.4004 0.257648
R_UpperArm  41.5033 -14.3597 34.8641
R_Forearm  -10.9329 -47.0093 34.9213
R_Hand  -0.0455553 8.30358 -11.7294
L_Clavicle  -0.44105 15.7414 -1.71009
L_UpperArm  17.473 -6.99724 0.242789
L_Forearm  -8.19885 33.0776 35.5789
L_Hand  0.0988076 -0.242651 2.09113
L_Thigh  -14.0392 1.08005 -4.51241
L_Calf  1.35536 -2.80019 21.2656
L_Foot  1.71185 15.0063 -5.9083
L_Toe0  0.505156 0.0344461 -6.1361
R_Thigh  7.96459 -5.82762 -11.3618
R_Calf  -3.15223 -3.81452 -11.9759
R_Foot  2.59019 4.29265 -18.5913
R_Toe0  -1.92152 -0.267116 -17.401
470
root  4.93075 32.2743 55.1125 95.2538 15.7883 94.4689
Spine  -2.44996 -8.54006 -11.6821
Spine1  -2.83582 7.0391 5.46487
Neck  3.97569e-016 0 -2.38542e-015
Head  14.9109 -6.44409 27.0381
R_Clavicle  0.404846 -20.9286 0.676162
R_UpperArm  41.2811 -14.7662 36.3536
R_Forearm  -8.11485 -45.5861 33.0082
R_Hand  -0.00128196 7.49719 -10.8562
L_Clavicle  -0.451955 15.9855 -1.77825
L_UpperArm  13.0056 -5.70442 5.28141
L_Forearm  -3.30739 36.1509 36.0068
L_Hand  0.0957003 -0.526779 2.11701
L_Thigh  -16.4012 0.172104 -6.19978
L_Calf  0.970697 -2.95747 22.5463
L_Foot  1.026 13.7385 -7.31602
L_Toe0  0.505156 0.0344461 -6.1361
R_Thigh  6.50785 -6.88867 -15.3803
R_Calf  -3.23862 -3.77778 -11.8652
R_Foot  2.52097 1.37556 -21.7273
R_Toe0  -0.792368 -0.274102 -16.8572
471
root  5.25354 32.1657 54.6276 91.5073 17.129 95.4134
Spine  -2.56831 -8.45111 -12.8955
Spine1  -3.27935 6.93264 5.58382
Neck  3.97569e-016 0 -2.38542e-015
Head  18.5615 -8.19771 27.7047
R_Clavicle  0.404951 -20.5316 1.02731
R_UpperArm  40.2098 -14.7459 37.9118
R_Forearm  -2.49215 -43.01 29.0619
R_Hand  -0.0133384 7.53074 -10.9826
L_Clavicle  -0.473539 16.4572 -1.81543
L_UpperArm  10.1045 -4.26636 10.2479
L_Forearm  -0.938674 37.7103 36.4052
L_Hand  0.0683184 -1.05221 1.62895
L_Thigh  -17.94 -0.891727 -7.84104
L_Calf  -0.401667 -3.1043 23.5374
L_Foot  0.815954 13.2084 -7.69262
L_Toe0  0.505156 0.0344461 -6.1361
R_Thigh  5.19989 -8.6754 -19.8243
R_Calf  -4.00792 -3.00316 -9.42298
R_Foot  2.56196 0.457963 -23.0736
R_Toe0  5.79039 -0.965843 -12.2074
